<svg width="34" height="34" viewBox="0 0 34 34" fill="none" xmlns="http://www.w3.org/2000/svg">
<path d="M16.6464 25.3536L17 25.7071L17.3536 25.3536L27.3536 15.3536L27.701 15.0061L27.3597 14.6527L24.5597 11.7527L24.2063 11.3866L23.8464 11.7464L19.5 16.0929V1V0.5H19H15H14.5V1V16.0929L10.1536 11.7464L9.79374 11.3866L9.4403 11.7527L6.6403 14.6527L6.29904 15.0061L6.64645 15.3536L16.6464 25.3536ZM1 22.5H0.5V23V29C0.5 30.2337 0.945093 31.3022 1.82145 32.1786C2.6978 33.0549 3.76634 33.5 5 33.5H29C30.2337 33.5 31.3022 33.0549 32.1786 32.1786C33.0549 31.3022 33.5 30.2337 33.5 29V23V22.5H33H29H28.5V23V28.5H5.5V23V22.5H5H1Z" fill="white" stroke="black"/>
</svg>
