<svg width="34" height="35" viewBox="0 0 34 35" fill="none" xmlns="http://www.w3.org/2000/svg">
<path d="M14.5 26V26.5H15H19H19.5V26V10.9071L23.8464 15.2536L24.2063 15.6134L24.5597 15.2473L27.3597 12.3473L27.701 11.9939L27.3536 11.6464L17.3536 1.64645L17 1.29289L16.6464 1.64645L6.64645 11.6464L6.29904 11.9939L6.6403 12.3473L9.4403 15.2473L9.79374 15.6134L10.1536 15.2536L14.5 10.9071V26ZM1 23.5H0.5V24V30C0.5 31.2337 0.945093 32.3022 1.82145 33.1786C2.6978 34.0549 3.76634 34.5 5 34.5H29C30.2337 34.5 31.3022 34.0549 32.1786 33.1786C33.0549 32.3022 33.5 31.2337 33.5 30V24V23.5H33H29H28.5V24V29.5H5.5V24V23.5H5H1Z" fill="white" stroke="black"/>
</svg>
