<svg width="34" height="34" viewBox="0 0 34 34" fill="none" xmlns="http://www.w3.org/2000/svg">
<path d="M14.9 25V25.5H15.4H18.6H19.1V25V15.4V14.9H18.6H15.4H14.9V15.4V25ZM17 12.7C17.5793 12.7 18.0885 12.4986 18.4936 12.0936C18.8986 11.6885 19.1 11.1792 19.1 10.6C19.1 10.0207 18.8986 9.51151 18.4936 9.10645C18.0885 8.70138 17.5793 8.5 17 8.5C16.4207 8.5 15.9115 8.70138 15.5064 9.10645C15.1014 9.51151 14.9 10.0207 14.9 10.6C14.9 11.1792 15.1014 11.6885 15.5064 12.0936C15.9115 12.4986 16.4207 12.7 17 12.7ZM10.5619 32.1991C12.5739 33.0673 14.7216 33.5 17 33.5C19.2784 33.5 21.4261 33.0673 23.4381 32.1991C25.4404 31.3351 27.187 30.1601 28.6736 28.6736C30.1601 27.187 31.3351 25.4404 32.1991 23.4381C33.0673 21.4261 33.5 19.2784 33.5 17C33.5 14.7216 33.0673 12.5739 32.1991 10.5619C31.3351 8.55964 30.1601 6.81296 28.6736 5.32645C27.187 3.83993 25.4404 2.66491 23.4381 1.80092C21.4261 0.932739 19.2784 0.5 17 0.5C14.7216 0.5 12.5739 0.932739 10.5619 1.80092C8.55964 2.66491 6.81296 3.83993 5.32645 5.32645C3.83993 6.81296 2.66491 8.55964 1.80092 10.5619C0.932739 12.5739 0.5 14.7216 0.5 17C0.5 19.2784 0.932739 21.4261 1.80092 23.4381C2.66491 25.4404 3.83993 27.187 5.32645 28.6736C6.81296 30.1601 8.55964 31.3351 10.5619 32.1991ZM25.7264 25.7264C23.3422 28.1107 20.4435 29.3 17 29.3C13.5565 29.3 10.6578 28.1107 8.27355 25.7264C5.88928 23.3422 4.7 20.4435 4.7 17C4.7 13.5565 5.88928 10.6578 8.27355 8.27355C10.6578 5.88928 13.5565 4.7 17 4.7C20.4435 4.7 23.3422 5.88928 25.7264 8.27355C28.1107 10.6578 29.3 13.5565 29.3 17C29.3 20.4435 28.1107 23.3422 25.7264 25.7264Z" fill="white" stroke="black"/>
</svg>
